# xmcd
#
# Track frame offsets: 
#        150
#        16775
#        34960
#        38325
#        52117
#        62702
#        75437
#        92287
#        108770
#        141767
#        164015
#        189707
#        202395
#        217110
#        241790
#        271650
#        296987
#        322592
#
# Disc length: 4545 seconds
#
# Revision: 2
# Processed by: cddbd v1.5.2PL0 Copyright (c) Steve Scherf et al.
# Submitted via: ExactAudioCopy v1.0b1
#
DISCID=f811bf12
DTITLE=American Folk Blues Festival - American Folk Blues Festival '82
DYEAR=1991
DGENRE=Blues
TTITLE0=James "Son" Thomas - Beefsteak Blues
TTITLE1=James "Son" Thomas - Catfish Blues
TTITLE2=John Cephas - Announcement By John Cephas
TTITLE3=Archie Edwards - How Long Blues
TTITLE4=Archie Edwards - That Won't Do
TTITLE5=Archie Edwards - Tack Me Back Baby
TTITLE6="Bowling Green John" Cephas - "Harmonica Phil" Wiggins - Big Bo
TTITLE6=ss Man
TTITLE7="Bowling Green John" Cephas - "Harmonica Phil" Wiggins - Burn Y
TTITLE7=our Bridges
TTITLE8=Lurrie Bell and Billy Branch - Chicago's Young Blues Generation /
TTITLE8=Detroit,Michigan
TTITLE9=Carey Bell - Billy Branch - "Harmonica Phil" Wiggins - Tribute T
TTITLE9=o Big Walter
TTITLE10="Bowling Green John" Cephas - "Harmonica Phil" Wiggins - Runni
TTITLE10=ng And Hiding
TTITLE11="Bowling Green John" Cephas - "Harmonica Phil" Wiggins - Good 
TTITLE11=Morning Little Schoolgirl
TTITLE12=James "Son" Thomas - J. W. Williams - Moses Rutues - Stormy Mon
TTITLE12=day Blues
TTITLE13=Carey Bell - Chicago's Young Blues Generation - Goin' On Main 
TTITLE13=Street
TTITLE14=Carey Bell - Billy Branch - "Harmonica Phil" Wiggins - Blues Ha
TTITLE14=rp Blues By Three
TTITLE15=That Dirty Black Rat
TTITLE16=Sometimes I'll Be Gone
TTITLE17=Margie Evans - "Bowling Green John" Cephas - "Harmonica Phil" W
TTITLE17=iggins - Bye Bye Baby
EXTD=
EXTT0=
EXTT1=
EXTT2=
EXTT3=
EXTT4=
EXTT5=
EXTT6=
EXTT7=
EXTT8=
EXTT9=
EXTT10=
EXTT11=
EXTT12=
EXTT13=
EXTT14=
EXTT15=
EXTT16=
EXTT17=
PLAYORDER=
